<svg width="174" height="54" viewBox="0 0 174 54" fill="none" xmlns="http://www.w3.org/2000/svg">
<path d="M37.8182 39V15.7273H51.7727V18.2273H40.6364V26.0909H50.7273V28.5909H40.6364V39H37.8182ZM62.0455 39.3636C60.4697 39.3636 59.0871 38.9886 57.8977 38.2386C56.7159 37.4886 55.7917 36.4394 55.125 35.0909C54.4659 33.7424 54.1364 32.1667 54.1364 30.3636C54.1364 28.5455 54.4659 26.9583 55.125 25.6023C55.7917 24.2462 56.7159 23.1932 57.8977 22.4432C59.0871 21.6932 60.4697 21.3182 62.0455 21.3182C63.6212 21.3182 65 21.6932 66.1818 22.4432C67.3712 23.1932 68.2955 24.2462 68.9545 25.6023C69.6212 26.9583 69.9545 28.5455 69.9545 30.3636C69.9545 32.1667 69.6212 33.7424 68.9545 35.0909C68.2955 36.4394 67.3712 37.4886 66.1818 38.2386C65 38.9886 63.6212 39.3636 62.0455 39.3636ZM62.0455 36.9545C63.2424 36.9545 64.2273 36.6477 65 36.0341C65.7727 35.4205 66.3447 34.6136 66.7159 33.6136C67.0871 32.6136 67.2727 31.5303 67.2727 30.3636C67.2727 29.197 67.0871 28.1098 66.7159 27.1023C66.3447 26.0947 65.7727 25.2803 65 24.6591C64.2273 24.0379 63.2424 23.7273 62.0455 23.7273C60.8485 23.7273 59.8636 24.0379 59.0909 24.6591C58.3182 25.2803 57.7462 26.0947 57.375 27.1023C57.0038 28.1098 56.8182 29.197 56.8182 30.3636C56.8182 31.5303 57.0038 32.6136 57.375 33.6136C57.7462 34.6136 58.3182 35.4205 59.0909 36.0341C59.8636 36.6477 60.8485 36.9545 62.0455 36.9545ZM74.0483 39V21.5455H76.6392V24.1818H76.821C77.1392 23.3182 77.715 22.6174 78.5483 22.0795C79.3816 21.5417 80.321 21.2727 81.3665 21.2727C81.5634 21.2727 81.8097 21.2765 82.1051 21.2841C82.4006 21.2917 82.6241 21.303 82.7756 21.3182V24.0455C82.6847 24.0227 82.4763 23.9886 82.1506 23.9432C81.8324 23.8902 81.4953 23.8636 81.1392 23.8636C80.2907 23.8636 79.5331 24.0417 78.8665 24.3977C78.2074 24.7462 77.6847 25.2311 77.2983 25.8523C76.9195 26.4659 76.7301 27.1667 76.7301 27.9545V39H74.0483ZM92.7415 39.3636C91.0597 39.3636 89.6089 38.9924 88.3892 38.25C87.1771 37.5 86.2415 36.4545 85.5824 35.1136C84.9309 33.7652 84.6051 32.197 84.6051 30.4091C84.6051 28.6212 84.9309 27.0455 85.5824 25.6818C86.2415 24.3106 87.1581 23.2424 88.3324 22.4773C89.5142 21.7045 90.893 21.3182 92.4688 21.3182C93.3778 21.3182 94.2756 21.4697 95.1619 21.7727C96.0483 22.0758 96.8551 22.5682 97.5824 23.25C98.3097 23.9242 98.8892 24.8182 99.321 25.9318C99.7528 27.0455 99.9688 28.4167 99.9688 30.0455V31.1818H86.5142V28.8636H97.2415C97.2415 27.8788 97.0445 27 96.6506 26.2273C96.2642 25.4545 95.7112 24.8447 94.9915 24.3977C94.2794 23.9508 93.4384 23.7273 92.4688 23.7273C91.4006 23.7273 90.4763 23.9924 89.696 24.5227C88.9233 25.0455 88.3286 25.7273 87.9119 26.5682C87.4953 27.4091 87.2869 28.3106 87.2869 29.2727V30.8182C87.2869 32.1364 87.5142 33.2538 87.9688 34.1705C88.4309 35.0795 89.071 35.7727 89.8892 36.25C90.7074 36.7197 91.6581 36.9545 92.7415 36.9545C93.446 36.9545 94.0824 36.8561 94.6506 36.6591C95.2263 36.4545 95.7225 36.1515 96.1392 35.75C96.5559 35.3409 96.8778 34.8333 97.1051 34.2273L99.696 34.9545C99.4233 35.8333 98.965 36.6061 98.321 37.2727C97.6771 37.9318 96.8816 38.447 95.9347 38.8182C94.9877 39.1818 93.9233 39.3636 92.7415 39.3636ZM117.139 21.5455C117.003 20.3939 116.45 19.5 115.48 18.8636C114.51 18.2273 113.321 17.9091 111.912 17.9091C110.882 17.9091 109.98 18.0758 109.207 18.4091C108.442 18.7424 107.844 19.2008 107.412 19.7841C106.988 20.3674 106.776 21.0303 106.776 21.7727C106.776 22.3939 106.923 22.928 107.219 23.375C107.522 23.8144 107.908 24.1818 108.378 24.4773C108.848 24.7652 109.34 25.0038 109.855 25.1932C110.37 25.375 110.844 25.5227 111.276 25.6364L113.639 26.2727C114.245 26.4318 114.92 26.6515 115.662 26.9318C116.412 27.2121 117.128 27.5947 117.81 28.0795C118.499 28.5568 119.067 29.1705 119.514 29.9205C119.961 30.6705 120.185 31.5909 120.185 32.6818C120.185 33.9394 119.855 35.0758 119.196 36.0909C118.545 37.1061 117.59 37.9129 116.332 38.5114C115.082 39.1098 113.563 39.4091 111.776 39.4091C110.109 39.4091 108.666 39.1402 107.446 38.6023C106.234 38.0644 105.279 37.3144 104.582 36.3523C103.893 35.3902 103.503 34.2727 103.412 33H106.321C106.397 33.8788 106.692 34.6061 107.207 35.1818C107.73 35.75 108.389 36.1742 109.185 36.4545C109.988 36.7273 110.851 36.8636 111.776 36.8636C112.851 36.8636 113.817 36.6894 114.673 36.3409C115.529 35.9848 116.207 35.4924 116.707 34.8636C117.207 34.2273 117.457 33.4848 117.457 32.6364C117.457 31.8636 117.241 31.2348 116.81 30.75C116.378 30.2652 115.81 29.8712 115.105 29.5682C114.401 29.2652 113.639 29 112.821 28.7727L109.957 27.9545C108.139 27.4318 106.7 26.6856 105.639 25.7159C104.579 24.7462 104.048 23.4773 104.048 21.9091C104.048 20.6061 104.401 19.4697 105.105 18.5C105.817 17.5227 106.772 16.7652 107.969 16.2273C109.173 15.6818 110.518 15.4091 112.003 15.4091C113.503 15.4091 114.836 15.678 116.003 16.2159C117.17 16.7462 118.094 17.4735 118.776 18.3977C119.465 19.322 119.829 20.3712 119.866 21.5455H117.139ZM125.773 39H122.818L131.364 15.7273H134.273L142.818 39H139.864L132.909 19.4091H132.727L125.773 39ZM126.864 29.9091H138.773V32.4091H126.864V29.9091ZM142.452 18.2273V15.7273H159.906V18.2273H152.588V39H149.77V18.2273H142.452Z" fill="white"/>
<rect x="18" y="33" width="6" height="6" fill="white"/>
<path d="M21 21L27.9282 34.5H14.0718L21 21Z" fill="white"/>
<path d="M21 17L27.0622 27.5H14.9378L21 17Z" fill="white"/>
<path d="M21 13L25.3301 20.5H16.6699L21 13Z" fill="white"/>
</svg>
